<svg width="33" height="33" viewBox="0 0 33 33" fill="none" xmlns="http://www.w3.org/2000/svg">
<path d="M31.1981 0.48291H1.73898C1.03052 0.48291 0.458153 1.05528 0.458153 1.76374V31.2229C0.458153 31.9313 1.03052 32.5037 1.73898 32.5037H31.1981C31.9066 32.5037 32.4789 31.9313 32.4789 31.2229V1.76374C32.4789 1.05528 31.9066 0.48291 31.1981 0.48291ZM9.95632 27.7686H5.20523V12.4867H9.95632V27.7686ZM7.58278 10.3973C7.03813 10.3973 6.50571 10.2358 6.05285 9.93325C5.6 9.63066 5.24704 9.20057 5.03861 8.69738C4.83018 8.1942 4.77565 7.6405 4.8819 7.10632C4.98816 6.57214 5.25043 6.08146 5.63555 5.69634C6.02068 5.31121 6.51136 5.04894 7.04554 4.94268C7.57972 4.83643 8.13342 4.89096 8.6366 5.09939C9.13979 5.30782 9.56988 5.66078 9.87247 6.11363C10.1751 6.56649 10.3366 7.09891 10.3366 7.64356C10.3326 9.16454 9.09976 10.3973 7.58278 10.3973ZM27.7439 27.7686H22.9968V20.3358C22.9968 18.5626 22.9648 16.2852 20.5272 16.2852C18.0576 16.2852 17.6773 18.2144 17.6773 20.2077V27.7686H12.9342V12.4867H17.4892V14.5761H17.5532C18.1857 13.3753 19.7347 12.1065 22.0482 12.1065C26.8593 12.1065 27.7439 15.2725 27.7439 19.3872V27.7686Z" fill="#FA4A0C"/>
</svg>

